<mxfile host="65bd71144e">
    <diagram id="S0JKUWCtysidhhDwySWY" name="Page-1">
        <mxGraphModel dx="1198" dy="1489" grid="1" gridSize="10" guides="1" tooltips="1" connect="1" arrows="1" fold="1" page="1" pageScale="1" pageWidth="850" pageHeight="1100" math="0" shadow="0">
            <root>
                <mxCell id="0"/>
                <mxCell id="1" parent="0"/>
                <mxCell id="33" value="" style="shape=image;verticalLabelPosition=bottom;labelBackgroundColor=default;verticalAlign=top;aspect=fixed;imageAspect=0;image=https://learn.microsoft.com/en-us/azure/architecture/databases/guide/_images/outbox.png;" vertex="1" parent="1">
                    <mxGeometry x="110" y="-20" width="560" height="401.69" as="geometry"/>
                </mxCell>
            </root>
        </mxGraphModel>
    </diagram>
</mxfile>